<svg width="224" height="50" viewBox="0 0 224 50" fill="none" xmlns="http://www.w3.org/2000/svg">
<path d="M32.1924 20.5464H32.8926V14.1854H14.4531L22.6225 25.5645L14.2197 36.0955H33.8262L34.5731 28.3681L33.8963 28.3209C33.8963 28.3209 33.8729 31.8548 29.1814 31.8313C24.4898 31.8077 19.3314 31.8313 19.3314 31.8313L26.3571 22.9494L20.942 15.3162L27.5708 15.3398C27.5708 15.3398 30.8619 15.4105 31.6322 18.4496C32.4024 21.4888 32.1924 20.5464 32.1924 20.5464Z" fill="white"/>
<path d="M62.9362 16.9513V23.7148H66.6686C67.6371 23.7148 68.2843 23.5676 68.6099 23.2732C69.0441 22.8862 69.2863 22.2048 69.3363 21.229H69.7998V27.1849H69.3363C69.2195 26.3521 69.1026 25.8179 68.9857 25.5824C68.8354 25.2879 68.589 25.0566 68.2467 24.8884C67.9043 24.7201 67.3783 24.636 66.6686 24.636H62.9362V30.2765C62.9362 31.0336 62.9696 31.4962 63.0364 31.6645C63.1032 31.8243 63.22 31.9547 63.387 32.0557C63.554 32.1482 63.8713 32.1945 64.3389 32.1945H67.2197C68.1799 32.1945 68.8771 32.1272 69.3113 31.9926C69.7455 31.858 70.163 31.593 70.5638 31.1976C71.0815 30.676 71.6117 29.8895 72.1544 28.8379H72.6554L71.19 33.1282H58.1016V32.6614H58.7028C59.1036 32.6614 59.4835 32.5646 59.8425 32.3711C60.1097 32.2365 60.2892 32.0346 60.3811 31.7654C60.4813 31.4962 60.5314 30.9452 60.5314 30.1124V18.9955C60.5314 17.9103 60.4228 17.2415 60.2057 16.9892C59.9051 16.6527 59.4041 16.4844 58.7028 16.4844H58.1016V16.0175H71.19L71.3779 19.7652H70.8894C70.7141 18.8651 70.5179 18.2468 70.3008 17.9103C70.092 17.5738 69.7789 17.3173 69.3614 17.1406C69.0274 17.0144 68.4387 16.9513 67.5954 16.9513H62.9362Z" fill="white"/>
<path d="M88.0986 16.0175L88.2864 20.0302H87.8105C87.7186 19.3236 87.5934 18.8189 87.4348 18.516C87.1759 18.0281 86.8294 17.6706 86.3952 17.4434C85.9693 17.2079 85.4057 17.0901 84.7043 17.0901H82.3121V30.1629C82.3121 31.2144 82.4248 31.8706 82.6503 32.1314C82.9676 32.4847 83.456 32.6614 84.1157 32.6614H84.7043V33.1282H77.5026V32.6614H78.1037C78.8218 32.6614 79.3312 32.4426 79.6318 32.0052C79.8155 31.736 79.9073 31.1219 79.9073 30.1629V17.0901H77.8658C77.0725 17.0901 76.5089 17.149 76.1749 17.2668C75.7407 17.4266 75.3692 17.7337 75.0602 18.1879C74.7513 18.6422 74.5676 19.2563 74.5091 20.0302H74.0332L74.2336 16.0175H88.0986Z" fill="white"/>
<path d="M104.381 15.6264L104.769 21.4435H104.381C103.863 19.7021 103.124 18.4487 102.164 17.6832C101.204 16.9177 100.051 16.5349 98.7071 16.5349C97.5799 16.5349 96.5612 16.8251 95.6511 17.4056C94.7409 17.9776 94.0228 18.8946 93.4968 20.1564C92.9791 21.4183 92.7202 22.9872 92.7202 24.8631C92.7202 26.411 92.9666 27.7528 93.4592 28.8884C93.9519 30.0241 94.6908 30.8948 95.6761 31.5005C96.6697 32.1061 97.8011 32.409 99.0703 32.409C100.173 32.409 101.145 32.1734 101.989 31.7023C102.832 31.2228 103.759 30.2765 104.769 28.8632L105.157 29.1156C104.306 30.6382 103.312 31.7528 102.176 32.4595C101.041 33.1661 99.6924 33.5194 98.131 33.5194C95.3171 33.5194 93.1377 32.4679 91.593 30.3648C90.4407 28.8001 89.8646 26.9578 89.8646 24.8379C89.8646 23.1302 90.2445 21.5613 91.0043 20.1312C91.7642 18.7011 92.8079 17.5949 94.1355 16.8125C95.4715 16.0218 96.9286 15.6264 98.5067 15.6264C99.7341 15.6264 100.945 15.9292 102.139 16.5349C102.49 16.72 102.74 16.8125 102.89 16.8125C103.116 16.8125 103.312 16.7326 103.479 16.5728C103.696 16.3456 103.851 16.0302 103.942 15.6264H104.381Z" fill="white"/>
<path d="M107.086 26.3773H113.562V28.2827H107.086V26.3773Z" fill="white"/>
<path d="M126.349 15.6264V21.5444H125.886C125.736 20.4088 125.464 19.5045 125.072 18.8315C124.688 18.1585 124.137 17.6243 123.419 17.2289C122.701 16.8335 121.957 16.6359 121.189 16.6359C120.321 16.6359 119.603 16.905 119.035 17.4434C118.467 17.9734 118.183 18.5791 118.183 19.2605C118.183 19.7821 118.363 20.2574 118.722 20.6864C119.24 21.3173 120.471 22.1585 122.417 23.2101C124.003 24.0681 125.084 24.7285 125.661 25.1912C126.245 25.6455 126.692 26.1839 127.001 26.8064C127.318 27.4289 127.477 28.0808 127.477 28.7622C127.477 30.0577 126.976 31.1766 125.974 32.1188C124.98 33.0525 123.698 33.5194 122.129 33.5194C121.636 33.5194 121.173 33.4816 120.738 33.4058C120.479 33.3638 119.941 33.2124 119.123 32.9516C118.313 32.6824 117.799 32.5478 117.582 32.5478C117.373 32.5478 117.206 32.6109 117.081 32.7371C116.964 32.8632 116.876 33.124 116.818 33.5194H116.355V27.6518H116.818C117.035 28.88 117.327 29.8012 117.695 30.4153C118.062 31.0209 118.622 31.5257 119.373 31.9295C120.133 32.3333 120.964 32.5352 121.866 32.5352C122.909 32.5352 123.732 32.2576 124.333 31.7023C124.942 31.1471 125.247 30.491 125.247 29.7339C125.247 29.3132 125.13 28.8884 124.897 28.4594C124.671 28.0304 124.316 27.6308 123.832 27.2606C123.506 27.0083 122.617 26.4741 121.164 25.6581C119.711 24.8337 118.676 24.1775 118.058 23.6896C117.448 23.2017 116.985 22.6633 116.668 22.0744C116.35 21.4856 116.192 20.8378 116.192 20.1312C116.192 18.903 116.659 17.8472 117.595 16.9639C118.53 16.0722 119.72 15.6264 121.164 15.6264C122.066 15.6264 123.022 15.8493 124.032 16.2952C124.5 16.5055 124.83 16.6106 125.022 16.6106C125.239 16.6106 125.414 16.5475 125.548 16.4213C125.69 16.2867 125.803 16.0218 125.886 15.6264H126.349Z" fill="white"/>
<path d="M135.28 21.229C137.016 21.229 138.411 21.8936 139.463 23.2227C140.356 24.3584 140.803 25.6623 140.803 27.1344C140.803 28.1692 140.557 29.2165 140.064 30.2765C139.572 31.3364 138.891 32.1356 138.023 32.674C137.163 33.2124 136.202 33.4816 135.142 33.4816C133.413 33.4816 132.04 32.7875 131.021 31.3995C130.161 30.2302 129.731 28.9179 129.731 27.4625C129.731 26.4026 129.99 25.351 130.508 24.3079C131.034 23.2564 131.723 22.4824 132.574 21.9861C133.426 21.4814 134.328 21.229 135.28 21.229ZM134.891 22.0492C134.449 22.0492 134.002 22.1838 133.551 22.453C133.109 22.7138 132.75 23.1764 132.474 23.841C132.199 24.5056 132.061 25.3594 132.061 26.4026C132.061 28.085 132.391 29.5362 133.05 30.756C133.718 31.9757 134.595 32.5856 135.68 32.5856C136.49 32.5856 137.158 32.2491 137.684 31.5762C138.21 30.9032 138.474 29.7465 138.474 28.1061C138.474 26.0535 138.035 24.4383 137.158 23.2606C136.566 22.453 135.81 22.0492 134.891 22.0492Z" fill="white"/>
<path d="M146.439 15.1847V30.5162C146.439 31.2397 146.489 31.7192 146.59 31.9547C146.698 32.1903 146.861 32.3711 147.078 32.4973C147.295 32.6151 147.7 32.674 148.293 32.674V33.1282H142.669V32.674C143.195 32.674 143.554 32.6193 143.746 32.5099C143.939 32.4006 144.089 32.2197 144.197 31.9673C144.306 31.715 144.36 31.2313 144.36 30.5162V20.0176C144.36 18.7137 144.331 17.9145 144.273 17.6201C144.214 17.3173 144.118 17.1111 143.984 17.0018C143.859 16.8924 143.696 16.8377 143.496 16.8377C143.279 16.8377 143.003 16.905 142.669 17.0396L142.456 16.598L145.876 15.1847H146.439Z" fill="white"/>
<path d="M159.691 21.5697V28.573C159.691 29.9105 159.72 30.7307 159.778 31.0336C159.845 31.328 159.945 31.5341 160.079 31.6519C160.221 31.7696 160.384 31.8285 160.567 31.8285C160.826 31.8285 161.118 31.757 161.444 31.614L161.619 32.0557L158.188 33.4816H157.624V31.0336C156.639 32.1103 155.887 32.7875 155.37 33.0651C154.852 33.3428 154.305 33.4816 153.729 33.4816C153.086 33.4816 152.526 33.2965 152.05 32.9263C151.583 32.5478 151.257 32.0641 151.073 31.4752C150.89 30.8863 150.798 30.0535 150.798 28.9767V23.8158C150.798 23.269 150.74 22.8904 150.623 22.6801C150.506 22.4698 150.33 22.31 150.097 22.2006C149.871 22.0828 149.458 22.0282 148.857 22.0366V21.5697H152.877V29.3048C152.877 30.3816 153.061 31.0882 153.428 31.4247C153.804 31.7612 154.255 31.9295 154.781 31.9295C155.14 31.9295 155.545 31.8159 155.996 31.5888C156.455 31.3616 156.998 30.9284 157.624 30.2891V23.7401C157.624 23.0839 157.503 22.6423 157.261 22.4151C157.027 22.1796 156.534 22.0534 155.783 22.0366V21.5697H159.691Z" fill="white"/>
<path d="M165.79 17.7715V21.5697H168.471V22.453H165.79V29.9484C165.79 30.6971 165.895 31.2018 166.103 31.4626C166.32 31.7234 166.596 31.8538 166.93 31.8538C167.205 31.8538 167.473 31.7696 167.732 31.6014C167.99 31.4247 168.191 31.1682 168.333 30.8317H168.821C168.529 31.6561 168.116 32.2786 167.581 32.6992C167.047 33.1114 166.496 33.3175 165.928 33.3175C165.544 33.3175 165.168 33.2124 164.801 33.0021C164.433 32.7833 164.162 32.4763 163.987 32.0809C163.811 31.6771 163.724 31.0588 163.724 30.226V22.453H161.907V22.0366C162.367 21.8515 162.834 21.5402 163.31 21.1028C163.795 20.6569 164.225 20.1312 164.6 19.5255C164.792 19.2058 165.06 18.6212 165.402 17.7715H165.79Z" fill="white"/>
<path d="M172.516 15.1847C172.867 15.1847 173.163 15.3109 173.405 15.5633C173.656 15.8072 173.781 16.1059 173.781 16.4592C173.781 16.8125 173.656 17.1154 173.405 17.3677C173.163 17.6201 172.867 17.7463 172.516 17.7463C172.165 17.7463 171.865 17.6201 171.614 17.3677C171.364 17.1154 171.239 16.8125 171.239 16.4592C171.239 16.1059 171.36 15.8072 171.602 15.5633C171.852 15.3109 172.157 15.1847 172.516 15.1847ZM173.556 21.229V30.5162C173.556 31.2397 173.606 31.7234 173.706 31.9673C173.814 32.2029 173.969 32.3795 174.169 32.4973C174.378 32.6151 174.754 32.674 175.297 32.674V33.1282H169.723V32.674C170.282 32.674 170.658 32.6193 170.85 32.5099C171.042 32.4006 171.193 32.2197 171.301 31.9673C171.418 31.715 171.476 31.2313 171.476 30.5162V26.0619C171.476 24.8084 171.439 23.9966 171.364 23.6265C171.305 23.3573 171.213 23.1722 171.088 23.0713C170.963 22.9619 170.792 22.9072 170.575 22.9072C170.341 22.9072 170.057 22.9703 169.723 23.0965L169.548 22.6423L173.005 21.229H173.556Z" fill="white"/>
<path d="M182.348 21.229C184.085 21.229 185.479 21.8936 186.531 23.2227C187.425 24.3584 187.872 25.6623 187.872 27.1344C187.872 28.1692 187.625 29.2165 187.133 30.2765C186.64 31.3364 185.959 32.1356 185.091 32.674C184.231 33.2124 183.271 33.4816 182.21 33.4816C180.482 33.4816 179.108 32.7875 178.09 31.3995C177.23 30.2302 176.8 28.9179 176.8 27.4625C176.8 26.4026 177.058 25.351 177.576 24.3079C178.102 23.2564 178.791 22.4824 179.643 21.9861C180.494 21.4814 181.396 21.229 182.348 21.229ZM181.96 22.0492C181.517 22.0492 181.071 22.1838 180.62 22.453C180.177 22.7138 179.818 23.1764 179.542 23.841C179.267 24.5056 179.129 25.3594 179.129 26.4026C179.129 28.085 179.459 29.5362 180.119 30.756C180.787 31.9757 181.663 32.5856 182.749 32.5856C183.559 32.5856 184.227 32.2491 184.753 31.5762C185.279 30.9032 185.542 29.7465 185.542 28.1061C185.542 26.0535 185.104 24.4383 184.227 23.2606C183.634 22.453 182.878 22.0492 181.96 22.0492Z" fill="white"/>
<path d="M192.906 23.677C194.251 22.045 195.533 21.229 196.752 21.229C197.378 21.229 197.916 21.3888 198.367 21.7085C198.818 22.0197 199.177 22.5371 199.444 23.2606C199.628 23.7653 199.72 24.5392 199.72 25.5824V30.5162C199.72 31.2481 199.778 31.7444 199.895 32.0052C199.987 32.2155 200.133 32.3795 200.334 32.4973C200.542 32.6151 200.922 32.674 201.473 32.674V33.1282H195.8V32.674H196.038C196.572 32.674 196.944 32.5941 197.152 32.4342C197.37 32.266 197.52 32.022 197.603 31.7023C197.637 31.5762 197.653 31.1808 197.653 30.5162V25.7843C197.653 24.7327 197.516 23.9714 197.24 23.5003C196.973 23.0208 196.518 22.7811 195.875 22.7811C194.881 22.7811 193.892 23.3279 192.906 24.4215V30.5162C192.906 31.2986 192.952 31.7823 193.044 31.9673C193.161 32.2113 193.32 32.3922 193.52 32.5099C193.729 32.6193 194.146 32.674 194.773 32.674V33.1282H189.099V32.674H189.349C189.934 32.674 190.326 32.5268 190.527 32.2323C190.736 31.9295 190.84 31.3574 190.84 30.5162V26.2259C190.84 24.8379 190.806 23.9924 190.74 23.6896C190.681 23.3868 190.585 23.1806 190.452 23.0713C190.326 22.9619 190.155 22.9072 189.938 22.9072C189.704 22.9072 189.425 22.9703 189.099 23.0965L188.911 22.6423L192.368 21.229H192.906V23.677Z" fill="white"/>
<path fill-rule="evenodd" clip-rule="evenodd" d="M24.8144 47.7528C37.2872 47.7528 47.3984 37.566 47.3984 25C47.3984 12.434 37.2872 2.24719 24.8144 2.24719C12.3417 2.24719 2.23051 12.434 2.23051 25C2.23051 37.566 12.3417 47.7528 24.8144 47.7528ZM24.8144 50C38.5191 50 49.6289 38.8071 49.6289 25C49.6289 11.1929 38.5191 0 24.8144 0C11.1098 0 0 11.1929 0 25C0 38.8071 11.1098 50 24.8144 50Z" fill="white"/>
<path fill-rule="evenodd" clip-rule="evenodd" d="M198.655 2.24719H24.8144C12.3417 2.24719 2.23051 12.434 2.23051 25C2.23051 37.566 12.3417 47.7528 24.8144 47.7528H198.655C211.128 47.7528 221.239 37.566 221.239 25C221.239 12.434 211.128 2.24719 198.655 2.24719ZM24.8144 0C11.1098 0 0 11.1929 0 25C0 38.8071 11.1098 50 24.8144 50H198.655C212.36 50 223.469 38.8071 223.469 25C223.469 11.1929 212.36 0 198.655 0H24.8144Z" fill="white"/>
</svg>
