<svg width="27" height="37" viewBox="0 0 27 37" fill="none" xmlns="http://www.w3.org/2000/svg">
<path d="M12.0938 35.7969C12.7266 36.7812 14.2031 36.7812 14.8359 35.7969C25.1016 21.0312 27 19.4844 27 14C27 6.54688 20.9531 0.5 13.5 0.5C5.97656 0.5 0 6.54688 0 14C0 19.4844 1.82812 21.0312 12.0938 35.7969ZM13.5 19.625C10.3359 19.625 7.875 17.1641 7.875 14C7.875 10.9062 10.3359 8.375 13.5 8.375C16.5938 8.375 19.125 10.9062 19.125 14C19.125 17.1641 16.5938 19.625 13.5 19.625Z" fill="#3A3E47"/>
<path d="M12.0938 35.7969L12.9349 35.2561L12.9251 35.2409L12.9148 35.226L12.0938 35.7969ZM14.8359 35.7969L14.0149 35.226L14.0045 35.2409L13.9948 35.2561L14.8359 35.7969ZM11.2526 36.3376C12.279 37.9343 14.6507 37.9343 15.6771 36.3376L13.9948 35.2561C13.7556 35.6282 13.1741 35.6282 12.9349 35.2561L11.2526 36.3376ZM15.657 36.3677C20.7568 29.0323 23.8441 24.8888 25.6242 21.934C26.5268 20.4356 27.1306 19.1853 27.5021 17.926C27.8757 16.6595 28 15.433 28 14H26C26 15.3092 25.887 16.3327 25.5838 17.3601C25.2786 18.3947 24.7662 19.4824 23.911 20.902C22.1754 23.7831 19.1807 27.7958 14.0149 35.226L15.657 36.3677ZM28 14C28 5.99459 21.5054 -0.5 13.5 -0.5V1.5C20.4008 1.5 26 7.09916 26 14H28ZM13.5 -0.5C5.42088 -0.5 -1 5.99799 -1 14H1C1 7.09576 6.53224 1.5 13.5 1.5V-0.5ZM-1 14C-1 15.4303 -0.880647 16.6554 -0.514571 17.9209C-0.150334 19.1801 0.444084 20.4306 1.33841 21.9302C3.10237 24.8879 6.17142 29.0303 11.2727 36.3677L12.9148 35.226C7.75045 27.7978 4.77263 23.7839 3.05613 20.9058C2.21021 19.4874 1.706 18.4 1.40666 17.3652C1.10916 16.3367 1 15.3118 1 14H-1ZM13.5 18.625C10.8882 18.625 8.875 16.6118 8.875 14H6.875C6.875 17.7163 9.78365 20.625 13.5 20.625V18.625ZM8.875 14C8.875 11.4504 10.8964 9.375 13.5 9.375V7.375C9.77551 7.375 6.875 10.3621 6.875 14H8.875ZM13.5 9.375C16.0415 9.375 18.125 11.4585 18.125 14H20.125C20.125 10.354 17.146 7.375 13.5 7.375V9.375ZM18.125 14C18.125 16.6036 16.0496 18.625 13.5 18.625V20.625C17.1379 20.625 20.125 17.7245 20.125 14H18.125Z" fill="white"/>
</svg>
